<?xml version="1.0" encoding="utf-8"?>
<!-- Generator: Adobe Illustrator 16.0.0, SVG Export Plug-In . SVG Version: 6.00 Build 0)  -->
<!DOCTYPE svg PUBLIC "-//W3C//DTD SVG 1.1//EN" "http://www.w3.org/Graphics/SVG/1.1/DTD/svg11.dtd">
<svg version="1.1" id="Calque_1" xmlns="http://www.w3.org/2000/svg" xmlns:xlink="http://www.w3.org/1999/xlink" x="0px" y="0px"
	 width="232.517px" height="229.963px" viewBox="600.06 0 232.517 229.963" enable-background="new 600.06 0 232.517 229.963"
	 xml:space="preserve">
<circle fill="#47D3C2" cx="716.319" cy="114.937" r="115.027"/>
<path fill="#FFFFFF" d="M787.81,137.754l-0.729-1.274l-15.867,9.161V85.934l0.381-0.22l15.486,8.941l0.729-1.265l-14.755-8.52
	l7.754-4.477l-0.373-0.636l-8.118,4.687l-1.104-0.638v-19.17h-1.463v18.326L717.652,52.88l15.866-9.161l-0.726-1.27l-15.868,9.161
	v-8.521h-0.736v8.946l-16.602-9.586l-0.734,1.27l15.87,9.162l-52.092,30.075V64.632h-1.467v19.171l-0.743,0.429l-7.748-4.473
	l-0.373,0.636l7.384,4.263l-15.127,8.733l0.741,1.265l15.852-9.152l0.015,0.009v60.129l-15.866-9.162l-0.735,1.274l16.602,9.583
	v1.282l-8.864,5.118l0.373,0.636l8.491-4.902v17.04h1.467v-17.886l0.381-0.22l51.714,29.852l-15.873,9.165l0.734,1.265l16.602-9.584
	v11.944h0.736v-11.521l15.868,9.16l0.726-1.265l-15.869-9.163l52.08-30.066l0.021,0.012v18.307h1.463v-17.462l9.223,5.325
	l0.373-0.636l-9.596-5.54v-0.862L787.81,137.754z M769.751,146.486L769,146.919l-51.708-29.854l52.459-30.287V146.486z
	 M769.751,85.927l-52.826,30.499V54.153l52.826,30.498V85.927z M716.186,53.726l0.002,0.001v62.701l-53.558-30.921v-0.859
	L716.186,53.726z M662.631,86.359l53.187,30.707l-52.074,30.065l-1.112-0.642V86.359z M664.48,147.556l51.708-29.854v59.709
	l-0.002,0.001L664.48,147.556z M716.925,176.987v-59.281l51.338,29.64L716.925,176.987z"/>
</svg>
